<svg xmlns="http://www.w3.org/2000/svg" viewBox="0 0 1024 1024" width="1024" height="1024">
<defs>
            <radialGradient id="ln-badge" cx="0.3" cy="0.22" r="0.95">
              <stop offset="0" stop-color="#6f7ce8"></stop><stop offset="0.36" stop-color="#3c46c4"></stop><stop offset="0.72" stop-color="#242a8e"></stop><stop offset="1" stop-color="#111544"></stop>
            </radialGradient>
            <linearGradient id="ln-gold" x1="0" y1="0" x2="0.8" y2="1">
              <stop offset="0" stop-color="#fff4cd"></stop><stop offset="0.34" stop-color="#f3cd68"></stop><stop offset="0.7" stop-color="#c9992c"></stop><stop offset="1" stop-color="#8e6714"></stop>
            </linearGradient>
            <linearGradient id="ln-gold2" x1="0" y1="0" x2="1" y2="1">
              <stop offset="0" stop-color="#e8c25c"></stop><stop offset="0.5" stop-color="#b7871d"></stop><stop offset="1" stop-color="#7d5a10"></stop>
            </linearGradient>
            <filter id="ln-sh" x="-30%" y="-30%" width="160%" height="160%">
              <feDropShadow dx="0" dy="20" stdDeviation="24" flood-color="#0d1038" flood-opacity="0.34"></feDropShadow>
            </filter>
          </defs>
          <g filter="url(#ln-sh)">
            <circle cx="512" cy="512" r="450" fill="url(#ln-badge)"></circle>
            <circle cx="512" cy="512" r="450" fill="none" stroke="url(#ln-gold)" stroke-width="24"></circle>
            <circle cx="512" cy="512" r="410" fill="none" stroke="url(#ln-gold2)" stroke-width="14" stroke-dasharray="6 22" opacity="0.85"></circle>
            <path d="M118 448 A450 450 0 0 1 542 62 A450 450 0 0 0 140 548 Z" fill="#ffffff" opacity="0.16"></path>
          </g>
          <g>
            <path d="M362 528 H662 V636 C662 700 592 730 512 730 C432 730 362 700 362 636 Z" fill="url(#ln-gold2)"></path>
            <path d="M362 528 H430 V690 C398 676 362 660 362 636 Z" fill="#ffffff" opacity="0.2"></path>
            <path d="M512 320 L836 448 L512 576 L188 448 Z" fill="url(#ln-gold)"></path>
            <path d="M512 320 L836 448 L512 576 Z" fill="#8e6714" opacity="0.25"></path>
            <path d="M836 448 V680 C836 706 812 720 800 748" fill="none" stroke="url(#ln-gold2)" stroke-width="16" stroke-linecap="round"></path>
            <circle cx="836" cy="452" r="22" fill="url(#ln-gold)"></circle>
            <path d="M772 748 H830 L818 838 C816 856 786 856 784 838 Z" fill="url(#ln-gold)"></path>
          </g>
</svg>